<svg xmlns="http://www.w3.org/2000/svg" xmlns:xlink="http://www.w3.org/1999/xlink" width="500" zoomAndPan="magnify" viewBox="0 0 375 374.999991" height="500" preserveAspectRatio="xMidYMid meet" version="1.0"><path fill="#e11d2a" d="M 185.152344 83.835938 C 204.253906 72.832031 228.679688 79.363281 239.683594 98.460938 L 319.488281 236.703125 C 330.566406 255.804688 323.964844 280.226562 304.933594 291.234375 C 285.835938 302.238281 261.410156 295.707031 250.40625 276.605469 L 170.597656 138.367188 C 159.523438 119.265625 166.054688 94.914062 185.152344 83.835938 Z M 185.152344 83.835938 " fill-opacity="1" fill-rule="evenodd"/><path fill="#ff6b6b" d="M 189.699219 291.234375 C 170.597656 302.238281 146.175781 295.707031 135.167969 276.605469 L 55.363281 138.367188 C 44.355469 119.265625 50.890625 94.914062 69.988281 83.835938 C 89.015625 72.832031 113.441406 79.363281 124.449219 98.460938 L 204.324219 236.703125 C 215.328125 255.804688 208.796875 280.226562 189.699219 291.234375 Z M 189.699219 291.234375 " fill-opacity="1" fill-rule="evenodd"/><path fill="#f97316" d="M 300.390625 83.835938 C 319.488281 72.832031 343.914062 79.363281 354.921875 98.460938 C 365.925781 117.5625 359.394531 141.988281 340.292969 152.992188 C 321.195312 163.996094 296.769531 157.464844 285.765625 138.367188 C 274.757812 119.265625 281.289062 94.914062 300.390625 83.835938 Z M 74.460938 291.234375 C 55.363281 302.238281 31.007812 295.707031 19.933594 276.605469 C 8.925781 257.578125 15.460938 233.152344 34.558594 222.148438 C 53.65625 211.070312 78.082031 217.675781 89.089844 236.703125 C 100.09375 255.804688 93.5625 280.226562 74.460938 291.234375 Z M 74.460938 291.234375 " fill-opacity="1" fill-rule="evenodd"/></svg>